<svg width="24" height="24" viewBox="0 0 24 24" fill="none" xmlns="http://www.w3.org/2000/svg">
	<path
		d="M8.39621 3.39621C8.14252 3.64998 8 3.99411 8 4.35294C8 4.71177 8.14252 5.05591 8.39621 5.30968L15.0947 12.0082L8.39621 18.7067C8.14971 18.9619 8.01331 19.3037 8.01639 19.6585C8.01947 20.0133 8.16179 20.3527 8.41269 20.6036C8.66359 20.8545 9.003 20.9969 9.35781 20.9999C9.71262 21.003 10.0545 20.8666 10.3097 20.6201L17.9649 12.9649C18.2186 12.7111 18.3611 12.367 18.3611 12.0082C18.3611 11.6493 18.2186 11.3052 17.9649 11.0514L10.3097 3.39621C10.0559 3.14252 9.71177 3 9.35294 3C8.99411 3 8.64998 3.14252 8.39621 3.39621Z"
		fill="white"/>
</svg>
