<svg width="24" height="24" viewBox="0 0 24 24" fill="none" xmlns="http://www.w3.org/2000/svg">
	<path
		d="M16.6038 20.6038C16.8575 20.35 17 20.0059 17 19.6471C17 19.2882 16.8575 18.9441 16.6038 18.6903L9.9053 11.9918L16.6038 5.29334C16.8503 5.03811 16.9867 4.69629 16.9836 4.34147C16.9805 3.98666 16.8382 3.64725 16.5873 3.39635C16.3364 3.14545 15.997 3.00314 15.6422 3.00005C15.2874 2.99697 14.9455 3.13337 14.6903 3.37987L7.0351 11.0351C6.7814 11.2889 6.63889 11.633 6.63889 11.9918C6.63889 12.3507 6.7814 12.6948 7.0351 12.9486L14.6903 20.6038C14.9441 20.8575 15.2882 21 15.6471 21C16.0059 21 16.35 20.8575 16.6038 20.6038Z"
		fill="white"/>
</svg>
