<svg width="36" height="36" viewBox="0 0 36 36" fill="none" xmlns="http://www.w3.org/2000/svg">
	<path
		d="M14.75 5C17.3359 5 19.8158 6.02723 21.6443 7.85571C23.4728 9.68419 24.5 12.1641 24.5 14.75C24.5 17.165 23.615 19.385 22.16 21.095L22.565 21.5H23.75L31.25 29L29 31.25L21.5 23.75V22.565L21.095 22.16C19.3256 23.6697 17.076 24.4993 14.75 24.5C12.1641 24.5 9.68419 23.4728 7.85571 21.6443C6.02723 19.8158 5 17.3359 5 14.75C5 12.1641 6.02723 9.68419 7.85571 7.85571C9.68419 6.02723 12.1641 5 14.75 5ZM14.75 8C11 8 8 11 8 14.75C8 18.5 11 21.5 14.75 21.5C18.5 21.5 21.5 18.5 21.5 14.75C21.5 11 18.5 8 14.75 8Z"
		fill="#3B37FF"/>
</svg>
