<svg width="42" height="42" viewBox="0 0 42 42" fill="none" xmlns="http://www.w3.org/2000/svg">
<g clip-path="url(#clip0_62_412)">
<path d="M17.3542 7.875C19.8682 7.875 22.2793 8.87369 24.057 10.6514C25.8346 12.4291 26.8333 14.8401 26.8333 17.3542C26.8333 19.7021 25.9729 21.8604 24.5583 23.5229L24.9521 23.9167H26.1042L33.3958 31.2083L31.2083 33.3958L23.9167 26.1042V24.9521L23.5229 24.5583C21.8026 26.0261 19.6155 26.8327 17.3542 26.8333C14.8401 26.8333 12.4291 25.8346 10.6514 24.057C8.87369 22.2793 7.875 19.8682 7.875 17.3542C7.875 14.8401 8.87369 12.4291 10.6514 10.6514C12.4291 8.87369 14.8401 7.875 17.3542 7.875ZM17.3542 10.7917C13.7083 10.7917 10.7917 13.7083 10.7917 17.3542C10.7917 21 13.7083 23.9167 17.3542 23.9167C21 23.9167 23.9167 21 23.9167 17.3542C23.9167 13.7083 21 10.7917 17.3542 10.7917Z" fill="white"/>
<path d="M16.8542 8.375C19.3682 8.375 21.7793 9.37369 23.557 11.1514C25.3346 12.9291 26.3333 15.3401 26.3333 17.8542C26.3333 20.2021 25.4729 22.3604 24.0583 24.0229L24.4521 24.4167H25.6042L32.8958 31.7083L30.7083 33.8958L23.4167 26.6042V25.4521L23.0229 25.0583C21.3026 26.5261 19.1155 27.3327 16.8542 27.3333C14.3401 27.3333 11.9291 26.3346 10.1514 24.557C8.37369 22.7793 7.375 20.3682 7.375 17.8542C7.375 15.3401 8.37369 12.9291 10.1514 11.1514C11.9291 9.37369 14.3401 8.375 16.8542 8.375ZM16.8542 11.2917C13.2083 11.2917 10.2917 14.2083 10.2917 17.8542C10.2917 21.5 13.2083 24.4167 16.8542 24.4167C20.5 24.4167 23.4167 21.5 23.4167 17.8542C23.4167 14.2083 20.5 11.2917 16.8542 11.2917Z" fill="#3B37FF"/>
</g>
<defs>
<clipPath id="clip0_62_412">
<rect width="35" height="35" fill="white" transform="translate(3.5 3.5)"/>
</clipPath>
</defs>
</svg>
