<svg width="36" height="36" viewBox="0 0 36 36" fill="none" xmlns="http://www.w3.org/2000/svg">
<path d="M14.3542 4.875C16.8682 4.875 19.2793 5.87369 21.057 7.65138C22.8346 9.42907 23.8333 11.8401 23.8333 14.3542C23.8333 16.7021 22.9729 18.8604 21.5583 20.5229L21.9521 20.9167H23.1042L30.3958 28.2083L28.2083 30.3958L20.9167 23.1042V21.9521L20.5229 21.5583C18.8026 23.0261 16.6155 23.8327 14.3542 23.8333C11.8401 23.8333 9.42907 22.8346 7.65138 21.057C5.87369 19.2793 4.875 16.8682 4.875 14.3542C4.875 11.8401 5.87369 9.42907 7.65138 7.65138C9.42907 5.87369 11.8401 4.875 14.3542 4.875ZM14.3542 7.79167C10.7083 7.79167 7.79167 10.7083 7.79167 14.3542C7.79167 18 10.7083 20.9167 14.3542 20.9167C18 20.9167 20.9167 18 20.9167 14.3542C20.9167 10.7083 18 7.79167 14.3542 7.79167Z" fill="white"/>
</svg>
